<?xml version="1.0" encoding="UTF-8" standalone="no"?><!DOCTYPE svg PUBLIC "-//W3C//DTD SVG 1.1//EN" "http://www.w3.org/Graphics/SVG/1.1/DTD/svg11.dtd"><svg width="100%" height="100%" viewBox="0 0 1067 1067" version="1.1" xmlns="http://www.w3.org/2000/svg" xmlns:xlink="http://www.w3.org/1999/xlink" xml:space="preserve" xmlns:serif="http://www.serif.com/" style="fill-rule:evenodd;clip-rule:evenodd;stroke-linejoin:round;stroke-miterlimit:2;"><rect id="Cubed" x="0" y="0" width="1066.67" height="1066.67" style="fill:none;"/><path d="M939.287,136.1c2.547,0.363 17.141,2.445 27.638,16.441c3.233,4.31 5.719,9.319 7.073,14.533c1.395,5.371 1.001,11.067 1.019,16.616c-0,0.005 -2.288,18.181 -4.726,35.846c-12.281,88.988 -22.054,126.359 -31.343,155.931c-41.231,131.263 -115.082,180.424 -254.745,195.695c-103.145,11.278 -203.332,1.921 -299.29,13.535c-54.818,6.634 -101.185,19.604 -131.611,51.856c-28.414,30.118 -41.625,74.335 -48.619,100.128c-17.861,65.869 -29.069,156.497 -29.678,158.203c-1.865,5.224 -2.764,10.904 -5.601,15.671c-1.297,2.181 -8.773,14.743 -25.378,19.034c-2.532,0.654 -17.14,4.429 -32.358,-4.623c-14.743,-8.769 -18.399,-22.921 -19.034,-25.378c-1.388,-5.371 -1.001,-11.065 -0.984,-16.612c-0,-0.008 2.568,-18.124 5.282,-35.76c11.46,-74.474 25.37,-145.838 50.895,-203.739c35.411,-80.323 89.344,-113.472 146.857,-131.075c92.1,-28.189 217.082,-21.487 308.375,-24.777c161.971,-5.837 209.365,-33.438 240.983,-110.568c0.269,-0.655 11.88,-25.464 27.298,-94.922c11.32,-51.002 20.122,-109.788 20.322,-110.352c1.847,-5.227 2.722,-10.909 5.548,-15.679c8.736,-14.748 22.921,-18.401 25.378,-19.034c8.208,-2.113 8.31,-2.166 16.699,-0.97Z" style="fill:currentColor;"/></svg>