<?xml version="1.0" encoding="UTF-8" standalone="no"?><!DOCTYPE svg PUBLIC "-//W3C//DTD SVG 1.1//EN" "http://www.w3.org/Graphics/SVG/1.1/DTD/svg11.dtd"><svg width="100%" height="100%" viewBox="0 0 1067 1067" version="1.1" xmlns="http://www.w3.org/2000/svg" xmlns:xlink="http://www.w3.org/1999/xlink" xml:space="preserve" xmlns:serif="http://www.serif.com/" style="fill-rule:evenodd;clip-rule:evenodd;stroke-linejoin:round;stroke-miterlimit:2;"><rect id="Exponential" x="0" y="0" width="1066.67" height="1066.67" style="fill:none;"/><path d="M942.605,136.644c2.492,0.562 16.649,3.753 25.99,18.555c2.884,4.571 4.976,9.768 5.948,15.085c1.865,10.19 1.211,10.293 -0.902,20.43c-18.055,86.61 -33.98,135.292 -37.751,146.819c-73.215,223.806 -207.147,438.233 -466.74,538.486c-20.256,7.822 -47.56,15.69 -51.744,16.896c-7.701,2.219 -42.593,12.274 -97.679,22.234c-80.234,14.506 -149.674,15.81 -186.36,15.841c-2.579,0.002 -17.384,0.014 -29.767,-12.369c-3.808,-3.808 -6.975,-8.415 -9.045,-13.386c-6.808,-16.345 -1.006,-30.27 -0,-32.684c6.596,-15.829 20.089,-21.455 22.431,-22.431c10.725,-4.472 11.065,-3.281 22.67,-3.353c121.869,-0.754 197.987,-21.554 208.689,-24.341c16.259,-4.233 50.814,-13.387 104.106,-35.448c234.072,-96.898 343.891,-302.114 403.688,-491.843c3.838,-12.179 18.1,-52.748 36.124,-126.615c0.614,-2.515 4.124,-16.9 18.912,-26.263c14.788,-9.364 28.938,-6.174 31.43,-5.613Z" style="fill:currentColor;"/></svg>