<?xml version="1.0" encoding="UTF-8" standalone="no"?><!DOCTYPE svg PUBLIC "-//W3C//DTD SVG 1.1//EN" "http://www.w3.org/Graphics/SVG/1.1/DTD/svg11.dtd"><svg width="100%" height="100%" viewBox="0 0 592 613" version="1.1" xmlns="http://www.w3.org/2000/svg" xmlns:xlink="http://www.w3.org/1999/xlink" xml:space="preserve" xmlns:serif="http://www.serif.com/" style="fill-rule:evenodd;clip-rule:evenodd;stroke-linejoin:round;stroke-miterlimit:2;"><g><path d="M7.512,334.876l192,-0l-0,22.8c-0,34.4 9.6,60.4 28.8,78c15.2,13.6 37.6,20.4 67.2,20.4c29.6,-0 52.4,-7.6 68.4,-22.8c18.4,-18.4 27.6,-43.6 27.6,-75.6l-0,-22.8l192,-0l-0,57.6c-0,60.8 -17.2,108.8 -51.6,144c-48.8,50.4 -126,75.6 -231.6,75.6c-113.6,-0 -194.4,-25.6 -242.4,-76.8c-33.6,-35.2 -50.4,-82.8 -50.4,-142.8l-0,-57.6Z"/><circle cx="101.022" cy="101.022" r="93.511"/><path d="M101.022,3.565c0.356,0.006 43.267,-2.288 74.446,34.574c40.765,48.194 25.793,121.277 -29.99,149.865c-56.075,28.738 -124.467,-2.831 -139.35,-63.758c-14.627,-59.88 29.372,-118.466 91.131,-120.622c0.301,-0.01 0.299,-0.005 3.763,-0.059Zm0.008,7.857l0,0.036c-0.284,0.007 -39.55,-2.014 -68.252,31.926c-39.26,46.424 -21.386,117.53 34.489,140.376c57.28,23.421 121.3,-17.605 123.114,-80.43c0.676,-23.404 -7.697,-46.408 -24.544,-64.082c-27.652,-29.008 -62.155,-27.742 -64.807,-27.826Z"/><circle cx="490.001" cy="167.853" r="93.511"/><path d="M490.001,70.395c0.356,0.007 43.267,-2.287 74.446,34.575c40.765,48.194 25.793,121.277 -29.99,149.865c-56.075,28.738 -124.467,-2.831 -139.35,-63.758c-14.627,-59.88 29.372,-118.466 91.131,-120.622c0.301,-0.011 0.299,-0.005 3.763,-0.06Zm0.008,7.858l0,0.036c-0.284,0.006 -39.55,-2.014 -68.252,31.926c-39.26,46.423 -21.386,117.53 34.489,140.376c57.28,23.42 121.3,-17.605 123.114,-80.431c0.676,-23.403 -7.697,-46.407 -24.544,-64.082c-27.652,-29.008 -62.155,-27.742 -64.807,-27.825Z"/></g></svg>