<?xml version="1.0" encoding="UTF-8" standalone="no"?><!DOCTYPE svg PUBLIC "-//W3C//DTD SVG 1.1//EN" "http://www.w3.org/Graphics/SVG/1.1/DTD/svg11.dtd"><svg width="100%" height="100%" viewBox="0 0 1067 1067" version="1.1" xmlns="http://www.w3.org/2000/svg" xmlns:xlink="http://www.w3.org/1999/xlink" xml:space="preserve" xmlns:serif="http://www.serif.com/" style="fill-rule:evenodd;clip-rule:evenodd;stroke-linejoin:round;stroke-miterlimit:2;"><rect id="Linear" x="0" y="-0" width="1066.67" height="1066.67" style="fill:none;"/><path d="M912.164,160.144c1.108,2.312 7.306,15.247 0.876,32.041c-2.007,5.243 -5.019,10.206 -8.786,14.368c-3.937,4.35 -8.795,7.926 -13.941,10.744c-27.386,14.997 -55.436,28.755 -83.432,42.578c-31.519,15.562 -63.4,30.379 -95.1,45.569l-354.854,170.034c-26.23,12.315 -53.075,23.288 -79.335,35.538c-42.212,19.693 -84.044,40.19 -126.066,60.284c-2.325,1.112 -15.667,7.492 -32.164,1.684c-5.079,-1.789 -9.925,-4.574 -13.941,-8.161c-1.949,-1.741 -13.198,-11.791 -14.118,-29.465c-0.892,-17.125 8.845,-28.03 10.536,-29.923c3.695,-4.138 8.316,-7.544 13.264,-10.051c41.565,-21.055 84.2,-39.934 126.008,-60.502c26.001,-12.791 51.373,-26.838 77.405,-39.565c58.57,-28.636 117.588,-56.345 176.382,-84.517l273.572,-131.086c28.302,-13.154 56.947,-25.555 85.421,-38.332c16.731,-7.508 31.267,-2.828 33.849,-1.997c17.118,5.511 23.316,18.446 24.424,20.759Z" style="fill:currentColor;"/><path d="M133.333,106.018c2.535,-0 16.688,-0 28.926,12.919c3.822,4.035 6.965,8.845 9.076,13.985c2.206,5.373 3.318,11.238 3.66,17.036c1.657,28.117 1.957,56.302 2.321,84.466c0.409,31.703 -0,63.411 -0,95.117l-0,354.921c-0.227,26.138 -1.914,52.248 -2.21,78.385c-0.477,42.011 -0.073,84.028 -0.11,126.042c-0.002,2.55 -0.015,17.186 -12.253,29.424c-3.768,3.768 -8.326,6.902 -13.244,8.951c-2.387,0.995 -16.166,6.737 -32.331,0c-15.664,-6.527 -21.232,-19.88 -22.199,-22.198c-2.113,-5.067 -3.167,-10.647 -3.299,-16.135c-1.006,-42.016 0.367,-84.059 -0.109,-126.084c-0.297,-26.137 -1.983,-52.247 -2.21,-78.385l0,-450.038c0.364,-28.15 1.546,-56.283 2.319,-84.424c0.499,-18.143 10.89,-29.113 12.737,-31.063c12.239,-12.919 26.392,-12.919 28.926,-12.919Z" style="fill:currentColor;"/><path d="M916.066,888.889c-0,2.534 -0,16.687 -12.92,28.926c-4.035,3.822 -8.844,6.965 -13.985,9.075c-5.373,2.206 -11.238,3.319 -17.036,3.661c-28.112,1.656 -56.291,1.956 -84.45,2.32l-449.953,0c-26.133,-0.226 -52.238,-1.913 -78.37,-2.21c-42.004,-0.476 -84.013,-0.073 -126.019,-0.109c-2.55,-0.002 -17.186,-0.015 -29.424,-12.254c-3.768,-3.767 -6.902,-8.325 -8.951,-13.243c-0.995,-2.388 -6.737,-16.166 -0,-32.332c6.527,-15.663 19.88,-21.232 22.198,-22.198c5.067,-2.113 10.648,-3.167 16.136,-3.299c42.008,-1.007 84.042,0.367 126.06,-0.11c26.132,-0.296 52.237,-1.983 78.37,-2.209c58.791,-0.51 117.587,-0 176.381,-0l273.572,-0c28.145,0.363 56.272,1.546 84.408,2.319c18.143,0.498 29.113,10.89 31.063,12.737c12.92,12.238 12.92,26.391 12.92,28.926Z" style="fill:currentColor;"/>/></svg>