<?xml version="1.0" encoding="UTF-8" standalone="no"?><!DOCTYPE svg PUBLIC "-//W3C//DTD SVG 1.1//EN" "http://www.w3.org/Graphics/SVG/1.1/DTD/svg11.dtd"><svg width="100%" height="100%" viewBox="0 0 3648 861" version="1.1" xmlns="http://www.w3.org/2000/svg" xmlns:xlink="http://www.w3.org/1999/xlink" xml:space="preserve" xmlns:serif="http://www.serif.com/" style="fill-rule:evenodd;clip-rule:evenodd;stroke-linejoin:round;stroke-miterlimit:2;"><g><path d="M638.654,572.1l192,-0l-0,22.8c-0,34.4 9.6,60.4 28.8,78c15.2,13.6 37.6,20.4 67.2,20.4c29.6,-0 52.4,-7.6 68.4,-22.8c18.4,-18.4 27.6,-43.6 27.6,-75.6l-0,-22.8l192,-0l-0,57.6c-0,60.8 -17.2,108.8 -51.6,144c-48.8,50.4 -126,75.6 -231.6,75.6c-113.6,0 -194.4,-25.6 -242.4,-76.8c-33.6,-35.2 -50.4,-82.8 -50.4,-142.8l-0,-57.6Z"/><circle cx="732.164" cy="338.247" r="93.511"/><path d="M732.164,240.789c0.357,0.007 43.267,-2.287 74.447,34.575c40.765,48.194 25.792,121.276 -29.991,149.865c-56.075,28.738 -124.467,-2.831 -139.35,-63.758c-14.627,-59.88 29.372,-118.467 91.131,-120.622c0.301,-0.011 0.299,-0.005 3.763,-0.06Zm0.009,7.858l-0,0.036c-0.284,0.006 -39.551,-2.015 -68.253,31.925c-39.26,46.424 -21.386,117.531 34.489,140.376c57.28,23.421 121.3,-17.604 123.114,-80.43c0.676,-23.404 -7.697,-46.408 -24.544,-64.082c-27.652,-29.008 -62.155,-27.742 -64.806,-27.825Z"/><circle cx="1121.14" cy="405.077" r="93.511"/><path d="M1121.14,307.62c0.357,0.006 43.267,-2.288 74.447,34.574c40.764,48.194 25.792,121.277 -29.991,149.865c-56.075,28.738 -124.467,-2.831 -139.35,-63.758c-14.627,-59.88 29.372,-118.466 91.131,-120.622c0.301,-0.01 0.299,-0.004 3.763,-0.059Zm0.009,7.857l-0,0.037c-0.284,0.006 -39.551,-2.015 -68.253,31.925c-39.26,46.424 -21.386,117.53 34.489,140.376c57.28,23.421 121.3,-17.605 123.114,-80.43c0.676,-23.404 -7.697,-46.408 -24.544,-64.082c-27.652,-29.008 -62.155,-27.742 -64.806,-27.826Z"/><path d="M587.696,829.524l-19.044,-154.992c-0.624,-5.088 -4.956,-8.916 -10.092,-8.916l-221.976,-0c-7.824,-0 -12.696,-8.448 -8.796,-15.228l247.92,-430.332c3.888,-6.768 -0.984,-15.228 -8.808,-15.228l-556.752,-0c-6.096,-0 -10.824,5.34 -10.068,11.388l19.044,154.992c0.624,5.088 4.956,8.916 10.08,8.916l211.824,-0c7.824,-0 12.708,8.448 8.808,15.228l-247.932,430.332c-3.9,6.768 0.996,15.228 8.808,15.228l566.904,-0c6.096,-0 10.836,-5.352 10.08,-11.388l-0,-0Z" style="fill-rule:nonzero;"/><path d="M1822.97,829.524l-19.044,-154.992c-0.624,-5.088 -4.956,-8.916 -10.092,-8.916l-221.976,-0c-7.824,-0 -12.696,-8.448 -8.796,-15.228l247.92,-430.332c3.888,-6.768 -0.984,-15.228 -8.808,-15.228l-556.752,-0c-6.096,-0 -10.824,5.34 -10.068,11.388l19.044,154.992c0.624,5.088 4.956,8.916 10.08,8.916l211.824,-0c7.824,-0 12.708,8.448 8.808,15.228l-247.932,430.332c-3.9,6.768 0.996,15.228 8.808,15.228l566.904,-0c6.096,-0 10.836,-5.352 10.08,-11.388l0,-0Z" style="fill-rule:nonzero;"/><path d="M2413.81,204.828l-189.696,-0c-5.616,-0 -10.164,4.548 -10.164,10.164l-0,347.952c-0,24.108 -0,54.132 -10.272,76.14c-9.012,20.256 -37.356,32.844 -73.98,32.844c-19.716,-0 -35.064,-4.524 -46.944,-13.836c-7.284,-5.712 -13.32,-13.368 -17.844,-22.644c-9.9,-21.864 -11.232,-48.912 -11.232,-72.504l-0,-347.952c-0,-5.616 -4.56,-10.164 -10.164,-10.164l-189.672,0c-5.616,0 -10.164,4.548 -10.164,10.164l-0,357.96c-0,93.768 10.932,146.604 75.792,211.836l0.024,0.024c4.392,4.344 9.228,8.592 14.316,12.576c0.996,0.804 67.704,53.172 156.036,53.172c39.672,-0 83.736,-10.572 128.148,-41.136c3.348,-2.304 7.908,0.132 7.908,4.188l-0,17.136c-0,5.616 4.548,10.164 10.164,10.164l177.744,-0c5.604,-0 10.152,-4.548 10.152,-10.164l-0,-615.756c-0,-5.616 -4.548,-10.164 -10.152,-10.164l-0,-0Z" style="fill-rule:nonzero;"/><path d="M2966.59,647.484l-260.424,-0c-5.604,-0 -10.164,-4.56 -10.164,-10.152l-0,-627.168c-0,-5.616 -4.536,-10.164 -10.152,-10.164l-193.608,-0c-5.616,-0 -10.164,4.548 -10.164,10.164l-0,820.812c-0,5.616 4.548,10.164 10.164,10.164l456.156,-0c5.196,-0 9.552,-3.912 10.104,-9.096l18.18,-173.34c0.624,-6 -4.068,-11.22 -10.092,-11.22l-0,-0Z" style="fill-rule:nonzero;"/><path d="M3633.37,433.728c-7.104,-23.88 -17.076,-47.112 -29.664,-69.108l0.096,-0.048l-6.24,-10.32c-1.536,-2.484 -3.12,-4.944 -4.716,-7.392l-3.636,-5.496c-1.848,-2.808 -3.804,-5.544 -5.832,-8.22l-0.36,-0.468c-2.46,-3.36 -4.992,-6.648 -7.584,-9.888l-2.112,-2.616c-2.208,-2.724 -4.44,-5.412 -6.72,-8.052l-1.764,-2.064l-3.84,3.276l3.3,-3.876c-3.552,-4.02 -7.356,-8.136 -11.616,-12.516l-2.04,-2.076c-2.652,-2.664 -5.34,-5.28 -8.064,-7.848l-0.864,-0.84c-3.372,-3.216 -6.828,-6.324 -10.392,-9.324l-2.7,-2.28c-4.728,-3.996 -9.204,-7.596 -13.824,-11.088c-1.08,-0.828 -2.16,-1.62 -3.264,-2.412l-0.9,-0.672c-5.364,-3.924 -10.908,-7.752 -16.776,-11.556l-0.708,-0.432c-5.568,-3.516 -14.808,-9.012 -20.556,-12.204c-1.524,-0.852 -3.06,-1.668 -4.668,-2.508l-2.64,4.296l2.112,-4.572l-0.888,-0.456c-2.604,-1.344 -5.208,-2.676 -8.1,-4.092l-1.488,-0.696c-5.868,-2.82 -11.64,-5.4 -17.112,-7.668l-1.68,-0.672c-3.348,-1.356 -6.708,-2.676 -10.536,-4.104c-1.272,-0.468 -2.544,-0.924 -3.804,-1.356c-4.14,-1.476 -8.292,-2.88 -12.72,-4.272l-0.732,-0.228c-4.356,-1.344 -9.108,-2.688 -14.508,-4.092l-4.152,-1.056c-9.456,-2.34 -19.14,-4.284 -28.776,-5.796l-4.044,-0.612c-9.912,-1.428 -20.052,-2.448 -30.3,-3.024l-3.72,-0.192c-5.868,-0.252 -10.776,-0.372 -15.42,-0.372c-4.716,0 -9.828,0.12 -15.66,0.384c-1.236,0.06 -2.472,0.144 -3.696,0.204l-0.912,0.072c-3.828,0.216 -7.644,0.504 -11.424,0.84l-1.188,0.108c-1.116,0.108 -2.244,0.216 -3.348,0.324c-5.532,0.588 -10.392,1.188 -14.832,1.848l-0.156,0.024c-0.06,0.012 -0.144,0.024 -0.216,0.024l-0.792,0.12c-4.428,0.684 -11.652,1.992 -16.032,2.904l-2.556,0.528c-3.648,0.78 -7.272,1.596 -10.896,2.484l-1.128,0.276c-1.068,0.264 -2.124,0.516 -3.168,0.78c-4.86,1.26 -9.66,2.58 -14.472,4.056c-4.74,1.452 -9.432,3.048 -14.088,4.704c-1.056,0.372 -2.112,0.756 -3.168,1.164l-0.972,0.36c-3.432,1.272 -6.828,2.592 -10.212,3.972l-0.936,0.372c-1.044,0.432 -2.088,0.852 -3.132,1.284c-4.512,1.908 -8.988,3.888 -13.488,6.024c-4.416,2.1 -8.748,4.32 -13.056,6.588c-1.032,0.54 -2.028,1.104 -3.036,1.644l-0.816,0.444c-3.168,1.74 -6.288,3.504 -9.408,5.34l-3.744,2.22c-4.14,2.508 -8.244,5.076 -12.264,7.752c-40.272,26.808 -74.88,62.616 -100.068,103.536c-2.532,4.104 -4.956,8.292 -7.308,12.516l-2.928,5.388c-0.576,1.044 -1.14,2.088 -1.692,3.144c-0.54,1.008 -1.044,2.04 -1.536,3.072l-1.26,2.532c-0.516,1.032 -1.032,2.064 -1.524,3.096c-2.112,4.368 -4.152,8.784 -6.084,13.26c-3.324,7.752 -6.456,16.068 -9.564,25.38c-9.468,28.308 -15.024,57.636 -16.536,87.144c-0.3,5.652 -0.444,11.412 -0.444,17.148c-0,5.712 0.144,11.484 0.444,17.136c0.852,16.788 3.024,33.612 6.408,49.98c1.14,5.472 2.412,10.884 3.78,16.104c1.668,6.396 3.684,13.08 6.348,21.06c4.764,14.292 10.44,28.128 16.824,41.088c0.528,1.044 1.056,2.076 1.608,3.108l0.984,1.896c1.776,3.444 3.576,6.9 5.46,10.272l0.864,1.632c1.992,3.504 4.044,6.96 6.156,10.38c25.188,40.932 59.796,76.728 100.068,103.536c4.02,2.688 8.124,5.256 12.264,7.764l3.744,2.22c3.096,1.824 6.24,3.6 9.396,5.328l0.816,0.444c1.008,0.552 2.016,1.104 3.024,1.644c4.308,2.28 8.652,4.5 12.66,6.384l0.48,0.252c4.428,2.088 8.904,4.068 13.416,5.976c1.044,0.444 2.088,0.876 3.132,1.284l0.936,0.384c3.372,1.38 6.78,2.688 10.2,3.96l0.84,0.324c1.092,0.408 2.208,0.816 3.3,1.212c4.656,1.656 9.348,3.252 14.16,4.716c4.296,1.332 9.012,2.64 14.376,4.032c1.056,0.276 2.124,0.528 3.18,0.78l1.152,0.288c3.612,0.876 7.248,1.704 10.896,2.484l4.392,0.912c4.068,0.84 8.16,1.584 12.288,2.22l2.688,0.42c0.084,0 0.144,0.012 0.228,0.036l0.144,0.012c4.44,0.66 9.312,1.26 14.832,1.848c1.104,0.108 2.232,0.216 3.336,0.312l1.188,0.108c3.804,0.348 7.62,0.636 11.448,0.852l1.14,0.084c1.14,0.072 2.304,0.132 3.468,0.192c5.82,0.264 10.932,0.384 15.66,0.384c4.644,0 9.54,-0.12 15.6,-0.372l3.72,-0.204c10.068,-0.564 20.208,-1.572 30.468,-3.048l3.66,-0.564c9.66,-1.524 19.356,-3.468 29.064,-5.868l3.852,-0.984c5.448,-1.416 10.212,-2.76 14.76,-4.164l0.756,-0.252c4.236,-1.32 8.424,-2.736 12.588,-4.224l4.128,-1.5c3.408,-1.248 6.78,-2.58 10.608,-4.116l1.14,-0.456c5.64,-2.328 11.304,-4.872 17.328,-7.776l1.56,-0.732c2.64,-1.284 5.28,-2.616 8.244,-4.164l1.08,-0.552c1.548,-0.816 3.096,-1.644 4.632,-2.472l1.848,-1.044c6.408,-3.552 12.744,-7.344 19.032,-11.364l1.548,-1.008c5.46,-3.54 10.824,-7.26 16.068,-11.136l3.816,-2.832c4.488,-3.396 8.976,-6.984 13.752,-11.016l-3.312,-3.792l3.84,3.36l3.384,-2.88c3.132,-2.664 6.18,-5.424 9.144,-8.256l0.828,-0.792c2.736,-2.592 5.448,-5.244 8.112,-7.92l2.292,-2.328c4.116,-4.224 7.824,-8.256 11.628,-12.54l1.992,-2.328c2.304,-2.688 4.584,-5.4 6.96,-8.34l1.884,-2.34c1.236,-1.548 2.448,-3.132 3.648,-4.716l0.168,0.048l2.172,-2.928c3.612,-4.848 7.248,-10.068 11.232,-16.128c3.168,-4.836 5.868,-9.156 8.484,-13.572l2.832,-4.656l-0.132,-0.072c2.82,-5.004 7.656,-14.904 11.496,-22.908c2.904,-6.048 -0.756,-13.188 -7.368,-14.364l-170.604,-30.66c-3.744,-0.672 -7.5,0.864 -9.852,3.876c-30.564,39.096 -73.488,59.364 -119.532,59.364c-54.144,0 -103.152,-28.884 -130.536,-75.3c-4.02,-6.804 0.84,-15.432 8.736,-15.432l445.488,0c4.98,0 9.204,-3.576 10.044,-8.484c3.276,-19.152 5.448,-40.776 5.448,-59.124c-0.012,-31.788 -4.632,-63.444 -13.764,-94.056l-0,-0Zm-195.3,21.528l-242.064,0c-6.36,0 -11.196,-5.82 -10.02,-12.072c8.856,-46.944 68.364,-83.244 131.04,-83.244c68.952,-0 123.18,36.552 131.088,83.412c1.056,6.216 -3.744,11.904 -10.044,11.904Z" style="fill-rule:nonzero;"/></g></svg>