<?xml version="1.0" encoding="UTF-8" standalone="no"?><!DOCTYPE svg PUBLIC "-//W3C//DTD SVG 1.1//EN" "http://www.w3.org/Graphics/SVG/1.1/DTD/svg11.dtd"><svg width="100%" height="100%" viewBox="0 0 1067 1067" version="1.1" xmlns="http://www.w3.org/2000/svg" xmlns:xlink="http://www.w3.org/1999/xlink" xml:space="preserve" xmlns:serif="http://www.serif.com/" style="fill-rule:evenodd;clip-rule:evenodd;stroke-linejoin:round;stroke-miterlimit:2;"><rect id="Parabola" x="-0" y="0" width="1066.67" height="1066.67" style="fill:none;"/><path d="M939.287,136.1c2.559,0.366 17.308,2.474 27.801,16.464c3.228,4.304 5.704,9.314 7.032,14.528c1.368,5.369 1.078,11.06 0.897,16.599c-0.051,1.567 -9.833,75.474 -10.702,82.036c-12.548,94.809 -19.646,138.134 -30.866,193.168c-39.441,193.462 -115.11,424.909 -331.55,466.651c-28.742,5.543 -110.072,16.871 -193.664,-15.535c-117.392,-45.508 -177.898,-152.14 -211.829,-233.067c-12.754,-30.418 -24.331,-68.618 -26.167,-74.676c-0.64,-2.111 -16.343,-50.387 -36.38,-151.118c-17.353,-87.237 -29.359,-176.926 -42.204,-267.425c-0.362,-2.551 -2.441,-17.199 8.042,-31.178c3.231,-4.308 7.344,-8.094 11.972,-10.847c2.248,-1.337 15.218,-9.051 32.362,-4.623c16.608,4.29 24.081,16.853 25.378,19.034c2.836,4.767 4.234,10.294 5.596,15.672c1.562,6.168 25.845,202.267 51.952,310.486c9.726,40.318 28.466,112.504 61.718,183.598c56.986,121.84 138.333,184.487 263.185,176.618c171.913,-10.834 252.991,-174.143 301.688,-438.411c0.761,-4.13 9.335,-51.658 13.339,-75.199c11.073,-65.101 24.5,-156.328 24.775,-157.092c1.875,-5.224 2.791,-10.901 5.635,-15.666c1.301,-2.179 8.798,-14.74 25.379,-19.034c8.352,-2.163 15.293,-1.171 16.611,-0.983Z" style="fill:currentColor;"/></svg>