<?xml version="1.0" encoding="UTF-8" standalone="no"?><!DOCTYPE svg PUBLIC "-//W3C//DTD SVG 1.1//EN" "http://www.w3.org/Graphics/SVG/1.1/DTD/svg11.dtd"><svg width="100%" height="100%" viewBox="0 0 1067 1067" version="1.1" xmlns="http://www.w3.org/2000/svg" xmlns:xlink="http://www.w3.org/1999/xlink" xml:space="preserve" xmlns:serif="http://www.serif.com/" style="fill-rule:evenodd;clip-rule:evenodd;stroke-linejoin:round;stroke-miterlimit:2;"><rect id="Proportional" x="0" y="-0" width="1066.67" height="1066.67" style="fill:none;"/><path d="M896.834,521.72c1.111,2.31 7.323,15.228 0.917,32.032c-2,5.245 -5.005,10.213 -8.765,14.381c-3.93,4.357 -8.783,7.94 -13.923,10.771c-26.801,14.761 -54.267,28.291 -81.681,41.882c-30.861,15.301 -62.086,29.858 -93.129,44.786l-347.504,167.116c-25.689,12.1 -51.994,22.859 -77.714,34.895c-41.342,19.347 -82.304,39.498 -123.456,59.247c-2.323,1.115 -15.656,7.514 -32.162,1.729c-5.081,-1.781 -9.931,-4.56 -13.951,-8.141c-1.952,-1.739 -13.215,-11.772 -14.16,-29.445c-0.916,-17.123 8.806,-28.042 10.494,-29.938c3.689,-4.143 8.306,-7.554 13.25,-10.069c40.693,-20.708 82.46,-39.244 123.397,-59.466c25.46,-12.576 50.288,-26.407 75.779,-38.919c57.35,-28.152 115.152,-55.377 172.728,-83.066l267.905,-128.836c27.719,-12.923 55.783,-25.093 83.675,-37.639c16.725,-7.523 31.267,-2.864 33.851,-2.036c17.125,5.487 23.337,18.405 24.449,20.716Z" style="fill:currentColor;"/><path d="M118.03,106.018c2.534,-0 16.687,-0 28.926,12.919c3.822,4.035 6.965,8.845 9.076,13.985c2.206,5.373 3.318,11.238 3.66,17.036c1.656,28.117 1.956,56.302 2.32,84.466l0,450.038c-0.226,26.138 -1.913,52.248 -2.209,78.385c-0.477,42.011 -0.074,84.028 -0.11,126.042c-0.002,2.55 -0.015,17.186 -12.254,29.424c-3.767,3.768 -8.325,6.902 -13.243,8.951c-2.388,0.995 -16.166,6.737 -32.332,0c-15.663,-6.527 -21.232,-19.88 -22.198,-22.198c-2.113,-5.067 -3.167,-10.647 -3.299,-16.135c-1.007,-42.016 0.367,-84.059 -0.11,-126.084c-0.296,-26.137 -1.983,-52.247 -2.209,-78.385c-0.51,-58.802 -0,-117.61 -0,-176.415l-0,-273.623c0.363,-28.15 1.546,-56.283 2.319,-84.424c0.498,-18.143 10.89,-29.113 12.737,-31.063c12.238,-12.919 26.392,-12.919 28.926,-12.919Z" style="fill:currentColor;"/><path d="M900.762,888.889c0,2.534 0,16.687 -12.92,28.926c-4.034,3.822 -8.844,6.965 -13.985,9.075c-5.373,2.206 -11.237,3.319 -17.035,3.661c-28.112,1.656 -56.292,1.956 -84.45,2.32c-31.697,0.41 -63.4,0 -95.099,0l-354.855,0c-26.132,-0.226 -52.238,-1.913 -78.37,-2.21c-42.003,-0.476 -84.012,-0.073 -126.018,-0.109c-2.55,-0.002 -17.186,-0.015 -29.424,-12.254c-3.768,-3.767 -6.902,-8.325 -8.952,-13.243c-0.994,-2.388 -6.736,-16.166 0,-32.332c6.528,-15.663 19.881,-21.232 22.199,-22.198c5.067,-2.113 10.647,-3.167 16.135,-3.299c42.008,-1.007 84.043,0.367 126.06,-0.11c26.132,-0.296 52.238,-1.983 78.37,-2.209c58.792,-0.51 117.588,-0 176.382,-0l273.572,-0c28.144,0.363 56.272,1.546 84.408,2.319c18.143,0.498 29.113,10.89 31.062,12.737c12.92,12.238 12.92,26.391 12.92,28.926Z" style="fill:currentColor;"/>/></svg>